<!DOCTYPE svg PUBLIC "-//W3C//DTD SVG 1.1//EN" "http://www.w3.org/Graphics/SVG/1.1/DTD/svg11.dtd">
<!-- Uploaded to: SVG Repo, www.svgrepo.com, Transformed by: SVG Repo Mixer Tools -->
<svg height="800px" width="800px" version="1.1" id="Layer_1" xmlns="http://www.w3.org/2000/svg" xmlns:xlink="http://www.w3.org/1999/xlink" viewBox="0 0 511.999 511.999" xml:space="preserve" fill="#000000">
<g id="SVGRepo_bgCarrier" stroke-width="0"/>
<g id="SVGRepo_tracerCarrier" stroke-linecap="round" stroke-linejoin="round"/>
<g id="SVGRepo_iconCarrier"> <path style="fill:#A3875E;" d="M480.023,92.55c30.772,30.772,28.05,83.389-6.088,117.527c-5.595,5.595-11.694,10.354-18.103,14.256 c-6.635-13.184-15.531-25.541-26.335-36.806c4.47-2.304,8.746-5.402,12.615-9.272c16.399-16.399,19.003-40.397,5.798-53.591 c-13.194-13.194-37.181-10.601-53.591,5.809c-6.227,6.227-10.472,13.559-12.605,20.986c-12.84-7.021-26.763-12.99-41.555-17.749 v-0.011c4.513-12.636,11.983-24.695,22.337-35.049C396.634,64.51,449.251,61.777,480.023,92.55z"/> <path style="fill:#DBB67E;" d="M230.404,267.998c0-34.642-28.082-62.724-62.724-62.724s-62.724,28.082-62.724,62.724 c0,34.631,28.082,62.713,62.724,62.713S230.404,302.628,230.404,267.998z M293.964,267.998c0,34.631,28.082,62.713,62.724,62.713 s62.724-28.082,62.724-62.713c0-34.642-28.082-62.724-62.724-62.724S293.964,233.356,293.964,267.998z M455.832,224.331 c8.843,17.557,13.677,36.592,13.677,56.464c0,88.362-95.596,160.003-213.509,160.003s-213.51-71.641-213.51-160.003 c0-19.872,4.834-38.908,13.677-56.464c6.635-13.184,15.531-25.541,26.335-36.806c13.269-13.838,29.411-26.024,47.782-36.067 c12.84-7.021,26.763-12.99,41.555-17.749c25.82-8.317,54.278-12.915,84.16-12.915s58.34,4.598,84.16,12.915 c14.791,4.759,28.715,10.729,41.555,17.749c18.372,10.043,34.513,22.229,47.782,36.067 C440.301,198.789,449.197,211.147,455.832,224.331z M293.267,386.702c6.196-30.976-31.083-14.234-31.083-14.234 s-37.279-16.742-31.083,14.234c2.508,12.53,13.913,24.813,31.083,24.813C279.355,411.516,290.76,399.232,293.267,386.702z"/> <path style="fill:#6E5B3F;" d="M447.911,124.661c13.205,13.194,10.601,37.192-5.798,53.591c-3.87,3.87-8.146,6.967-12.615,9.272 c-13.269-13.838-29.411-26.024-47.782-36.067c2.133-7.427,6.377-14.759,12.605-20.986 C410.73,114.061,434.717,111.467,447.911,124.661z"/> <path style="fill:#F0DF9E;" d="M356.687,205.274c34.642,0,62.724,28.082,62.724,62.724c0,34.631-28.082,62.713-62.724,62.713 s-62.724-28.082-62.724-62.713C293.964,233.356,322.047,205.274,356.687,205.274z"/> <path style="fill:#FBCDCB;" d="M262.184,372.469c0,0,37.279-16.742,31.083,14.234c-2.508,12.53-13.913,24.813-31.083,24.813 c-17.17,0-28.575-12.284-31.083-24.813C224.906,355.727,262.184,372.469,262.184,372.469z"/> <path style="fill:#F0DF9E;" d="M167.681,205.274c34.642,0,62.724,28.082,62.724,62.724c0,34.631-28.082,62.713-62.724,62.713 s-62.724-28.082-62.724-62.713C104.957,233.356,133.04,205.274,167.681,205.274z"/> <path style="fill:#A3875E;" d="M171.84,133.697v0.011c-14.791,4.759-28.715,10.729-41.555,17.749 c-2.133-7.427-6.377-14.759-12.605-20.986c-16.41-16.41-40.397-19.003-53.591-5.809c-13.205,13.194-10.601,37.192,5.798,53.591 c3.87,3.87,8.156,6.967,12.615,9.272c-10.804,11.265-19.7,23.623-26.335,36.806c-6.409-3.901-12.509-8.66-18.103-14.256 C3.926,175.937,1.204,123.321,31.977,92.55s83.389-28.04,117.527,6.098C159.857,109.002,167.327,121.06,171.84,133.697z"/> <path style="fill:#6E5B3F;" d="M117.68,130.47c6.227,6.227,10.472,13.559,12.605,20.986c-18.372,10.043-34.513,22.229-47.782,36.067 c-4.459-2.304-8.746-5.402-12.615-9.272c-16.399-16.399-19.003-40.397-5.798-53.591C77.283,111.467,101.27,114.061,117.68,130.47z"/> <path d="M355.027,91.177c-8.665,8.667-15.789,18.79-20.946,29.667c-24.909-7.043-51.125-10.618-78.08-10.618 c-26.957,0-53.173,3.575-78.08,10.618c-5.157-10.878-12.28-21.001-20.947-29.667c-38.202-38.201-97.627-40.939-132.466-6.098 C7.48,102.105-1.177,125.372,0.129,150.596c1.285,24.812,12.104,48.588,30.465,66.948c3.82,3.821,7.907,7.339,12.212,10.521 c-7.216,16.959-10.88,34.654-10.88,52.73c0,46.144,23.712,89.326,66.767,121.591c42.144,31.583,98.01,48.976,157.307,48.976 c56.525,0,110.479-16.006,151.921-45.072c4.777-3.351,5.934-9.937,2.583-14.715c-3.349-4.776-9.936-5.932-14.714-2.583 c-37.921,26.595-87.567,41.242-139.79,41.242c-111.905,0-202.945-67.038-202.945-149.439c0-17.783,4.222-35.182,12.549-51.716 c6.094-12.109,14.345-23.63,24.523-34.244c0.003-0.002,0.005-0.005,0.008-0.008c0.015-0.016,0.031-0.031,0.045-0.046 c12.543-13.067,27.741-24.525,45.172-34.054c12.331-6.743,25.695-12.449,39.725-16.964c25.559-8.233,52.785-12.407,80.922-12.407 s55.362,4.174,80.924,12.408c14.027,4.513,27.391,10.221,39.723,16.963c17.428,9.527,32.623,20.983,45.167,34.049 c0.015,0.016,0.03,0.031,0.044,0.045c0.005,0.005,0.009,0.01,0.015,0.015c10.178,10.612,18.429,22.133,24.524,34.246 c8.325,16.531,12.548,33.93,12.548,51.713c0,24.358-8.192,48.553-23.691,69.971c-3.421,4.726-2.362,11.331,2.364,14.751 c4.727,3.422,11.331,2.361,14.751-2.365c18.124-25.044,27.704-53.522,27.704-82.357c0-18.078-3.664-35.772-10.88-52.73 c4.306-3.182,8.392-6.7,12.212-10.519c18.361-18.361,29.182-42.137,30.466-66.949c1.306-25.223-7.351-48.491-24.377-65.518 C452.653,50.239,393.23,52.976,355.027,91.177z M21.229,149.503c-0.993-19.17,5.477-36.744,18.217-49.485 c26.601-26.601,72.623-23.865,102.586,6.098c6.31,6.31,11.592,13.563,15.595,21.339c-7.568,2.811-14.934,5.947-22.041,9.391 c-2.751-4.997-6.263-9.673-10.438-13.848c-9.633-9.632-21.826-15.684-34.333-17.038c-13.364-1.451-25.508,2.54-34.194,11.226 c-8.694,8.689-12.686,20.836-11.238,34.205c1.355,12.51,7.404,24.701,17.033,34.329c1.333,1.333,2.721,2.59,4.151,3.786 c-5.201,6.251-9.852,12.752-13.933,19.454c-2.469-1.981-4.844-4.1-7.101-6.357C30.874,187.946,22.243,169.088,21.229,149.503z M81.079,174.054c-1.288-1.013-2.54-2.088-3.723-3.272c-6.235-6.235-10.13-13.929-10.968-21.665 c-0.745-6.879,1.09-12.911,5.17-16.987c4.074-4.074,10.103-5.907,16.982-5.165c7.735,0.838,15.431,4.735,21.67,10.973 c2.731,2.731,5.003,5.765,6.785,8.974C103.704,154.905,91.675,163.994,81.079,174.054z M434.642,170.784 c-1.184,1.184-2.436,2.259-3.721,3.272c-10.597-10.061-22.626-19.151-35.917-27.143c1.782-3.208,4.054-6.241,6.784-8.972 c6.239-6.238,13.935-10.136,21.67-10.974c6.876-0.742,12.907,1.089,16.986,5.168c4.077,4.072,5.912,10.104,5.167,16.983 C444.773,156.854,440.878,164.547,434.642,170.784z M490.771,149.503c-1.014,19.584-9.646,38.443-24.305,53.103 c-2.256,2.257-4.632,4.376-7.1,6.357c-4.081-6.704-8.732-13.205-13.932-19.454c1.427-1.195,2.815-2.452,4.148-3.786 c9.63-9.629,15.679-21.821,17.034-34.33c1.448-13.369-2.544-25.516-11.235-34.201c-8.69-8.69-20.839-12.674-34.197-11.229 c-12.508,1.354-24.7,7.406-34.333,17.039c-4.174,4.174-7.686,8.85-10.437,13.847c-7.108-3.444-14.475-6.58-22.041-9.391 c4.004-7.776,9.286-15.029,15.595-21.339c29.966-29.964,75.987-32.702,102.587-6.098 C485.293,112.759,491.764,130.333,490.771,149.503z"/> <path d="M423.067,390.996c2.596,0,5.196-0.951,7.236-2.869c0.803-0.755,1.597-1.515,2.383-2.281 c4.177-4.072,4.262-10.761,0.189-14.938c-4.072-4.177-10.76-4.263-14.938-0.19c-0.695,0.678-1.399,1.35-2.11,2.019 c-4.25,3.997-4.454,10.683-0.456,14.933C417.449,389.879,420.255,390.996,423.067,390.996z"/> <path d="M167.681,253.264c-5.834,0-10.564,4.73-10.564,10.564v8.328c0,5.833,4.729,10.564,10.564,10.564 c5.834,0,10.564-4.73,10.564-10.564v-8.329C178.244,257.994,173.515,253.264,167.681,253.264z"/> <path d="M356.687,282.721c5.834,0,10.564-4.73,10.564-10.564v-8.329c0-5.833-4.729-10.564-10.564-10.564s-10.564,4.73-10.564,10.564 v8.329C346.124,277.99,350.853,282.721,356.687,282.721z"/> <path d="M304.527,319.408c13.299,13.487,31.766,21.866,52.16,21.866c40.411,0,73.287-32.871,73.287-73.277 c0-40.411-32.877-73.288-73.287-73.288S283.4,227.586,283.4,267.997v89.509c-7.951-0.559-16.14,1.751-21.215,3.586 c-5.076-1.837-13.265-4.146-21.215-3.587v-89.508c0-40.411-32.877-73.288-73.288-73.288s-73.288,32.877-73.288,73.288 c0,40.406,32.877,73.277,73.288,73.277c20.393,0,38.861-8.379,52.16-21.866v60.403c0,0.214,0.019,0.424,0.032,0.635 c-0.001,2.495,0.255,5.252,0.87,8.332c3.313,16.549,18.612,33.302,41.441,33.302c22.829,0,38.128-16.753,41.441-33.305 c0.616-3.078,0.87-5.834,0.87-8.33c0.013-0.211,0.032-0.42,0.032-0.635V319.408z M356.687,215.837 c28.761,0,52.159,23.399,52.159,52.16c0,28.756-23.399,52.149-52.159,52.149c-28.761,0-52.16-23.395-52.16-52.149 C304.527,239.237,327.926,215.837,356.687,215.837z M167.681,320.146c-28.761,0-52.16-23.395-52.16-52.149 c0-28.761,23.399-52.16,52.16-52.16s52.16,23.399,52.16,52.16C219.84,296.752,196.442,320.146,167.681,320.146z M282.909,384.629 c-1.573,7.861-8.73,16.322-20.724,16.322c-11.994,0-19.151-8.462-20.725-16.32c-0.655-3.276-0.519-5.155-0.342-5.914 c2.625-0.879,10.766,0.736,16.761,3.397c2.733,1.219,5.878,1.213,8.613,0c5.994-2.662,14.131-4.283,16.759-3.397 C283.427,379.476,283.564,381.356,282.909,384.629z"/> </g>
</svg>